<mxfile host="app.diagrams.net" modified="2021-07-20T12:07:43.133Z" agent="5.0 (Macintosh)" etag="PFYhI4Wy-U7IkunC3VlD" version="14.9.0" type="github">
  <diagram id="B1YT_2KbgSHhYa7NV8CN" name="Page-1">
    <mxGraphModel dx="4132" dy="2552" grid="1" gridSize="5" guides="1" tooltips="1" connect="1" arrows="1" fold="1" page="1" pageScale="1" pageWidth="1100" pageHeight="850" math="0" shadow="0">
      <root>
        <mxCell id="0" />
        <mxCell id="1" parent="0" />
        <mxCell id="jOQJGu_451UqzSDvAJVw-1" value="&lt;div&gt;TOR2&lt;/div&gt;" style="rounded=1;whiteSpace=wrap;html=1;" vertex="1" parent="1">
          <mxGeometry x="540" y="430" width="120" height="60" as="geometry" />
        </mxCell>
        <mxCell id="jOQJGu_451UqzSDvAJVw-2" value="TOR1" style="rounded=1;whiteSpace=wrap;html=1;" vertex="1" parent="1">
          <mxGeometry x="380" y="430" width="120" height="60" as="geometry" />
        </mxCell>
        <mxCell id="jOQJGu_451UqzSDvAJVw-3" value="" style="rounded=1;whiteSpace=wrap;html=1;" vertex="1" parent="1">
          <mxGeometry x="130" y="240" width="120" height="60" as="geometry" />
        </mxCell>
        <mxCell id="jOQJGu_451UqzSDvAJVw-4" value="&lt;h1&gt;Notes&lt;/h1&gt;&lt;p&gt;All switches have suffix .sr07.wdc07&lt;br&gt;&lt;/p&gt;" style="text;html=1;strokeColor=none;fillColor=none;spacing=5;spacingTop=-20;whiteSpace=wrap;overflow=hidden;rounded=0;" vertex="1" parent="1">
          <mxGeometry x="800" y="670" width="290" height="170" as="geometry" />
        </mxCell>
      </root>
    </mxGraphModel>
  </diagram>
</mxfile>
